<svg width="968" height="504" viewBox="0 0 968 504" fill="none" xmlns="http://www.w3.org/2000/svg">
<rect width="968" height="504" fill="white"/>
<path d="M158.324 163C156.247 163 154.651 162.443 153.536 161.328C152.421 160.213 151.864 158.617 151.864 156.54V115.88C151.864 113.803 152.421 112.207 153.536 111.092C154.651 109.977 156.247 109.42 158.324 109.42H184.62C186.799 109.42 188.445 109.876 189.56 110.788C190.675 111.7 191.232 113.017 191.232 114.74C191.232 118.388 189.028 120.212 184.62 120.212H165.468V130.396H183.1C187.508 130.396 189.712 132.195 189.712 135.792C189.712 137.515 189.155 138.832 188.04 139.744C186.925 140.656 185.279 141.112 183.1 141.112H165.468V152.208H184.62C189.028 152.208 191.232 154.032 191.232 157.68C191.232 159.403 190.675 160.72 189.56 161.632C188.445 162.544 186.799 163 184.62 163H158.324ZM236.261 112.688C236.819 111.472 237.604 110.56 238.617 109.952C239.631 109.344 240.745 109.04 241.961 109.04C243.785 109.04 245.432 109.623 246.901 110.788C248.371 111.953 249.105 113.423 249.105 115.196C249.105 116.057 248.877 116.944 248.421 117.856L228.357 159.276C227.699 160.644 226.711 161.708 225.393 162.468C224.076 163.177 222.657 163.532 221.137 163.532C219.617 163.532 218.199 163.177 216.881 162.468C215.564 161.708 214.576 160.644 213.917 159.276L193.853 117.856C193.448 117.045 193.245 116.159 193.245 115.196C193.245 113.473 194.005 112.029 195.525 110.864C197.045 109.648 198.743 109.04 200.617 109.04C201.833 109.04 202.948 109.344 203.961 109.952C205.025 110.56 205.836 111.472 206.393 112.688L221.365 145.064L236.261 112.688ZM300.094 154.412C300.55 155.375 300.778 156.312 300.778 157.224C300.778 158.896 300.094 160.315 298.726 161.48C297.408 162.645 295.888 163.228 294.166 163.228C293 163.228 291.936 162.924 290.974 162.316C290.011 161.708 289.251 160.796 288.694 159.58L285.274 151.904H260.65L257.154 159.58C256.596 160.796 255.811 161.708 254.798 162.316C253.835 162.924 252.771 163.228 251.606 163.228C249.883 163.228 248.312 162.645 246.894 161.48C245.526 160.315 244.842 158.896 244.842 157.224C244.842 156.312 245.07 155.375 245.526 154.412L265.59 113.22C266.248 111.852 267.211 110.813 268.478 110.104C269.795 109.344 271.239 108.964 272.81 108.964C274.33 108.964 275.748 109.344 277.066 110.104C278.383 110.813 279.371 111.852 280.03 113.22L300.094 154.412ZM265.362 141.416H280.562L272.962 124.468L265.362 141.416ZM351.83 152.512C353.147 153.779 353.806 155.248 353.806 156.92C353.806 158.592 353.173 160.061 351.906 161.328C350.639 162.595 349.145 163.228 347.422 163.228C345.547 163.228 343.825 162.417 342.254 160.796L320.594 138.604V156.54C320.594 158.668 319.961 160.365 318.694 161.632C317.427 162.848 315.705 163.456 313.526 163.456C311.398 163.456 309.701 162.848 308.434 161.632C307.218 160.365 306.61 158.668 306.61 156.54V115.88C306.61 113.803 307.218 112.156 308.434 110.94C309.701 109.673 311.398 109.04 313.526 109.04C315.705 109.04 317.427 109.673 318.694 110.94C319.961 112.156 320.594 113.803 320.594 115.88V132.6L341.95 111.092C343.267 109.724 344.762 109.04 346.434 109.04C348.106 109.04 349.575 109.673 350.842 110.94C352.109 112.156 352.742 113.6 352.742 115.272C352.742 116.944 352.007 118.489 350.538 119.908L334.958 135.184L351.83 152.512ZM382.342 163.684C374.59 163.684 368.688 161.708 364.634 157.756C360.632 153.804 358.63 148.028 358.63 140.428V115.88C358.63 113.803 359.238 112.156 360.454 110.94C361.721 109.673 363.393 109.04 365.47 109.04C367.548 109.04 369.194 109.673 370.41 110.94C371.677 112.156 372.31 113.803 372.31 115.88V140.96C372.31 144.811 373.172 147.775 374.894 149.852C376.617 151.929 379.1 152.968 382.342 152.968C385.585 152.968 388.068 151.929 389.79 149.852C391.513 147.775 392.374 144.811 392.374 140.96V115.88C392.374 113.803 392.982 112.156 394.198 110.94C395.465 109.673 397.137 109.04 399.214 109.04C401.292 109.04 402.964 109.673 404.23 110.94C405.497 112.156 406.13 113.803 406.13 115.88V140.428C406.13 147.977 404.078 153.753 399.974 157.756C395.921 161.708 390.044 163.684 382.342 163.684ZM466.492 154.412C466.948 155.375 467.176 156.312 467.176 157.224C467.176 158.896 466.492 160.315 465.124 161.48C463.807 162.645 462.287 163.228 460.564 163.228C459.399 163.228 458.335 162.924 457.372 162.316C456.409 161.708 455.649 160.796 455.092 159.58L451.672 151.904H427.048L423.552 159.58C422.995 160.796 422.209 161.708 421.196 162.316C420.233 162.924 419.169 163.228 418.004 163.228C416.281 163.228 414.711 162.645 413.292 161.48C411.924 160.315 411.24 158.896 411.24 157.224C411.24 156.312 411.468 155.375 411.924 154.412L431.988 113.22C432.647 111.852 433.609 110.813 434.876 110.104C436.193 109.344 437.637 108.964 439.208 108.964C440.728 108.964 442.147 109.344 443.464 110.104C444.781 110.813 445.769 111.852 446.428 113.22L466.492 154.412ZM431.76 141.416H446.96L439.36 124.468L431.76 141.416ZM485.184 163.38C483.056 163.38 481.333 162.772 480.016 161.556C478.749 160.289 478.116 158.617 478.116 156.54V120.744H467.4C465.171 120.744 463.499 120.288 462.384 119.376C461.32 118.413 460.788 116.969 460.788 115.044C460.788 113.119 461.32 111.7 462.384 110.788C463.499 109.876 465.171 109.42 467.4 109.42H502.968C505.197 109.42 506.844 109.876 507.908 110.788C509.023 111.7 509.58 113.119 509.58 115.044C509.58 116.969 509.023 118.413 507.908 119.376C506.844 120.288 505.197 120.744 502.968 120.744H492.252V156.54C492.252 158.617 491.593 160.289 490.276 161.556C489.009 162.772 487.312 163.38 485.184 163.38ZM536.543 163.684C531.071 163.684 526.308 162.569 522.255 160.34C518.252 158.06 515.161 154.868 512.983 150.764C510.804 146.609 509.715 141.745 509.715 136.172C509.715 130.599 510.804 125.76 512.983 121.656C515.161 117.501 518.252 114.309 522.255 112.08C526.308 109.851 531.071 108.736 536.543 108.736C542.015 108.736 546.752 109.851 550.755 112.08C554.808 114.309 557.899 117.501 560.027 121.656C562.205 125.76 563.295 130.599 563.295 136.172C563.295 141.745 562.205 146.609 560.027 150.764C557.848 154.868 554.732 158.06 550.679 160.34C546.676 162.569 541.964 163.684 536.543 163.684ZM536.543 152.968C540.596 152.968 543.763 151.549 546.043 148.712C548.323 145.824 549.463 141.644 549.463 136.172C549.463 130.7 548.297 126.545 545.967 123.708C543.687 120.871 540.545 119.452 536.543 119.452C532.489 119.452 529.323 120.871 527.043 123.708C524.763 126.495 523.623 130.649 523.623 136.172C523.623 141.695 524.763 145.875 527.043 148.712C529.323 151.549 532.489 152.968 536.543 152.968ZM616.639 154.108C617.551 155.476 618.007 156.768 618.007 157.984C618.007 159.605 617.323 160.973 615.955 162.088C614.638 163.152 613.092 163.684 611.319 163.684C610.103 163.684 608.963 163.405 607.899 162.848C606.835 162.291 605.923 161.455 605.163 160.34L595.283 145.9C594.574 144.887 593.814 144.152 593.003 143.696C592.243 143.189 591.331 142.936 590.267 142.936H585.327V156.54C585.327 158.668 584.719 160.365 583.503 161.632C582.287 162.848 580.615 163.456 578.487 163.456C576.359 163.456 574.662 162.848 573.395 161.632C572.179 160.365 571.571 158.668 571.571 156.54V115.88C571.571 113.803 572.128 112.207 573.243 111.092C574.358 109.977 575.954 109.42 578.031 109.42H597.107C603.592 109.42 608.456 110.839 611.699 113.676C614.992 116.463 616.639 120.516 616.639 125.836C616.639 129.889 615.524 133.335 613.295 136.172C611.066 138.959 607.924 140.833 603.871 141.796C605.543 142.049 606.987 142.607 608.203 143.468C609.47 144.329 610.711 145.621 611.927 147.344L616.639 154.108ZM594.903 132.448C597.994 132.448 600.198 131.967 601.515 131.004C602.883 130.041 603.567 128.471 603.567 126.292C603.567 124.063 602.883 122.467 601.515 121.504C600.198 120.491 597.994 119.984 594.903 119.984H585.175V132.448H594.903ZM645 163.684C640.947 163.684 637.172 163.253 633.676 162.392C630.231 161.48 627.393 160.239 625.164 158.668C624.303 158.009 623.669 157.325 623.264 156.616C622.909 155.907 622.732 154.995 622.732 153.88C622.732 152.36 623.188 151.043 624.1 149.928C625.012 148.813 626.076 148.256 627.292 148.256C627.951 148.256 628.584 148.357 629.192 148.56C629.8 148.763 630.56 149.143 631.472 149.7C633.549 150.865 635.601 151.701 637.628 152.208C639.705 152.715 642.036 152.968 644.62 152.968C647.609 152.968 649.864 152.537 651.384 151.676C652.955 150.764 653.74 149.447 653.74 147.724C653.74 146.559 653.005 145.571 651.536 144.76C650.117 143.899 647.381 143.063 643.328 142.252C638.312 141.188 634.385 139.921 631.548 138.452C628.711 136.983 626.709 135.26 625.544 133.284C624.429 131.257 623.872 128.825 623.872 125.988C623.872 122.745 624.835 119.807 626.76 117.172C628.685 114.537 631.32 112.485 634.664 111.016C638.059 109.496 641.859 108.736 646.064 108.736C649.763 108.736 653.056 109.141 655.944 109.952C658.832 110.763 661.467 112.029 663.848 113.752C664.76 114.411 665.393 115.12 665.748 115.88C666.153 116.589 666.356 117.476 666.356 118.54C666.356 120.06 665.9 121.377 664.988 122.492C664.127 123.607 663.088 124.164 661.872 124.164C661.213 124.164 660.605 124.088 660.048 123.936C659.491 123.733 658.705 123.328 657.692 122.72C657.439 122.568 656.704 122.188 655.488 121.58C654.323 120.921 652.929 120.415 651.308 120.06C649.737 119.655 648.015 119.452 646.14 119.452C643.556 119.452 641.479 119.959 639.908 120.972C638.337 121.935 637.552 123.227 637.552 124.848C637.552 125.811 637.831 126.596 638.388 127.204C638.945 127.812 639.984 128.42 641.504 129.028C643.024 129.585 645.279 130.168 648.268 130.776C653.132 131.84 656.957 133.132 659.744 134.652C662.531 136.121 664.507 137.844 665.672 139.82C666.837 141.796 667.42 144.127 667.42 146.812C667.42 150.156 666.483 153.12 664.608 155.704C662.733 158.237 660.099 160.213 656.704 161.632C653.36 163 649.459 163.684 645 163.684Z" fill="#333333"/>
<path d="M703.991 163.456C701.863 163.456 700.166 162.848 698.899 161.632C697.683 160.365 697.075 158.668 697.075 156.54V115.88C697.075 113.803 697.632 112.207 698.747 111.092C699.862 109.977 701.458 109.42 703.535 109.42H722.991C728.919 109.42 733.53 110.94 736.823 113.98C740.116 116.969 741.763 121.149 741.763 126.52C741.763 131.84 740.091 136.02 736.747 139.06C733.454 142.1 728.868 143.62 722.991 143.62H711.059V156.54C711.059 158.668 710.426 160.365 709.159 161.632C707.892 162.848 706.17 163.456 703.991 163.456ZM721.091 133.132C723.675 133.132 725.575 132.6 726.791 131.536C728.058 130.472 728.691 128.825 728.691 126.596C728.691 122.188 726.158 119.984 721.091 119.984H711.059V133.132H721.091ZM793.577 154.108C794.489 155.476 794.945 156.768 794.945 157.984C794.945 159.605 794.261 160.973 792.893 162.088C791.575 163.152 790.03 163.684 788.257 163.684C787.041 163.684 785.901 163.405 784.837 162.848C783.773 162.291 782.861 161.455 782.101 160.34L772.221 145.9C771.511 144.887 770.751 144.152 769.941 143.696C769.181 143.189 768.269 142.936 767.205 142.936H762.265V156.54C762.265 158.668 761.657 160.365 760.441 161.632C759.225 162.848 757.553 163.456 755.425 163.456C753.297 163.456 751.599 162.848 750.333 161.632C749.117 160.365 748.509 158.668 748.509 156.54V115.88C748.509 113.803 749.066 112.207 750.181 111.092C751.295 109.977 752.891 109.42 754.969 109.42H774.045C780.53 109.42 785.394 110.839 788.637 113.676C791.93 116.463 793.577 120.516 793.577 125.836C793.577 129.889 792.462 133.335 790.233 136.172C788.003 138.959 784.862 140.833 780.809 141.796C782.481 142.049 783.925 142.607 785.141 143.468C786.407 144.329 787.649 145.621 788.865 147.344L793.577 154.108ZM771.841 132.448C774.931 132.448 777.135 131.967 778.453 131.004C779.821 130.041 780.505 128.471 780.505 126.292C780.505 124.063 779.821 122.467 778.453 121.504C777.135 120.491 774.931 119.984 771.841 119.984H762.113V132.448H771.841ZM827.332 163.684C821.86 163.684 817.097 162.569 813.044 160.34C809.041 158.06 805.95 154.868 803.772 150.764C801.593 146.609 800.504 141.745 800.504 136.172C800.504 130.599 801.593 125.76 803.772 121.656C805.95 117.501 809.041 114.309 813.044 112.08C817.097 109.851 821.86 108.736 827.332 108.736C832.804 108.736 837.541 109.851 841.544 112.08C845.597 114.309 848.688 117.501 850.816 121.656C852.994 125.76 854.084 130.599 854.084 136.172C854.084 141.745 852.994 146.609 850.816 150.764C848.637 154.868 845.521 158.06 841.468 160.34C837.465 162.569 832.753 163.684 827.332 163.684ZM827.332 152.968C831.385 152.968 834.552 151.549 836.832 148.712C839.112 145.824 840.252 141.644 840.252 136.172C840.252 130.7 839.086 126.545 836.756 123.708C834.476 120.871 831.334 119.452 827.332 119.452C823.278 119.452 820.112 120.871 817.832 123.708C815.552 126.495 814.412 130.649 814.412 136.172C814.412 141.695 815.552 145.875 817.832 148.712C820.112 151.549 823.278 152.968 827.332 152.968Z" fill="#FF8300"/>
<path d="M160.244 234.344C158.123 234.344 156.173 234.072 154.396 233.527C152.619 232.982 151.085 232.194 149.795 231.162C149.279 230.847 149.021 230.402 149.021 229.829C149.021 229.399 149.15 229.055 149.408 228.797C149.695 228.51 150.053 228.367 150.483 228.367C150.827 228.367 151.142 228.453 151.429 228.625C152.69 229.571 153.995 230.259 155.342 230.689C156.718 231.09 158.266 231.291 159.986 231.291C162.652 231.291 164.745 230.804 166.264 229.829C167.783 228.826 168.543 227.378 168.543 225.486C168.543 223.709 167.898 222.361 166.608 221.444C165.318 220.527 163.412 220.068 160.889 220.068H155.815C155.328 220.068 154.941 219.925 154.654 219.638C154.367 219.351 154.224 219.007 154.224 218.606C154.224 218.176 154.367 217.832 154.654 217.574C154.941 217.287 155.328 217.144 155.815 217.144H160.201C162.638 217.144 164.544 216.657 165.92 215.682C167.296 214.679 167.984 213.288 167.984 211.511C167.984 209.848 167.368 208.587 166.135 207.727C164.902 206.838 163.182 206.394 160.975 206.394C157.793 206.394 154.855 207.297 152.16 209.103C151.816 209.246 151.515 209.318 151.257 209.318C150.798 209.318 150.426 209.189 150.139 208.931C149.881 208.644 149.752 208.3 149.752 207.899C149.752 207.297 150.039 206.838 150.612 206.523C151.931 205.548 153.522 204.774 155.385 204.201C157.277 203.628 159.255 203.341 161.319 203.341C164.673 203.341 167.224 204.043 168.973 205.448C170.722 206.824 171.596 208.773 171.596 211.296C171.596 212.987 171.109 214.449 170.134 215.682C169.188 216.915 167.783 217.818 165.92 218.391C170.077 219.251 172.155 221.63 172.155 225.529C172.155 227.306 171.653 228.869 170.65 230.216C169.675 231.535 168.285 232.552 166.479 233.269C164.673 233.986 162.595 234.344 160.244 234.344ZM186.413 212.543C191.659 212.543 194.282 215.295 194.282 220.799V232.495C194.282 233.011 194.124 233.427 193.809 233.742C193.522 234.057 193.121 234.215 192.605 234.215C192.089 234.215 191.673 234.057 191.358 233.742C191.043 233.427 190.885 233.011 190.885 232.495V230.431C190.34 231.664 189.509 232.624 188.391 233.312C187.273 233.971 185.983 234.301 184.521 234.301C183.174 234.301 181.927 234.029 180.78 233.484C179.662 232.939 178.773 232.18 178.114 231.205C177.455 230.23 177.125 229.155 177.125 227.98C177.125 226.403 177.526 225.185 178.329 224.325C179.132 223.436 180.45 222.806 182.285 222.433C184.12 222.032 186.671 221.831 189.939 221.831H190.885V220.412C190.885 218.692 190.527 217.431 189.81 216.628C189.122 215.825 187.99 215.424 186.413 215.424C184.464 215.424 182.486 215.954 180.479 217.015C179.705 217.502 179.16 217.746 178.845 217.746C178.501 217.746 178.214 217.617 177.985 217.359C177.756 217.101 177.641 216.771 177.641 216.37C177.641 215.969 177.756 215.625 177.985 215.338C178.243 215.023 178.644 214.707 179.189 214.392C180.192 213.819 181.325 213.374 182.586 213.059C183.876 212.715 185.152 212.543 186.413 212.543ZM184.994 231.549C186.714 231.549 188.119 230.976 189.208 229.829C190.326 228.654 190.885 227.149 190.885 225.314V224.067H190.111C187.588 224.067 185.668 224.182 184.349 224.411C183.03 224.612 182.084 224.97 181.511 225.486C180.966 225.973 180.694 226.704 180.694 227.679C180.694 228.797 181.095 229.729 181.898 230.474C182.729 231.191 183.761 231.549 184.994 231.549ZM210.419 222.648C211.451 222.935 212.282 223.408 212.913 224.067C213.543 224.726 214.289 225.787 215.149 227.249L217.858 231.678C218.03 231.965 218.116 232.266 218.116 232.581C218.116 233.04 217.944 233.427 217.6 233.742C217.256 234.057 216.854 234.215 216.396 234.215C215.765 234.215 215.263 233.914 214.891 233.312L211.623 227.808C210.877 226.575 210.175 225.744 209.516 225.314C208.856 224.884 207.91 224.669 206.678 224.669H204.27V232.495C204.27 233.04 204.112 233.47 203.797 233.785C203.481 234.072 203.051 234.215 202.507 234.215C201.991 234.215 201.575 234.072 201.26 233.785C200.944 233.47 200.787 233.04 200.787 232.495V214.349C200.787 213.833 200.944 213.417 201.26 213.102C201.575 212.787 201.991 212.629 202.507 212.629C203.051 212.629 203.481 212.787 203.797 213.102C204.112 213.417 204.27 213.833 204.27 214.349V221.96H207.194L214.332 213.36C214.733 212.873 215.177 212.629 215.665 212.629C216.066 212.629 216.41 212.772 216.697 213.059C217.012 213.346 217.17 213.704 217.17 214.134C217.17 214.507 217.012 214.894 216.697 215.295L210.419 222.648ZM231.051 212.543C236.297 212.543 238.92 215.295 238.92 220.799V232.495C238.92 233.011 238.762 233.427 238.447 233.742C238.16 234.057 237.759 234.215 237.243 234.215C236.727 234.215 236.311 234.057 235.996 233.742C235.68 233.427 235.523 233.011 235.523 232.495V230.431C234.978 231.664 234.147 232.624 233.029 233.312C231.911 233.971 230.621 234.301 229.159 234.301C227.811 234.301 226.564 234.029 225.418 233.484C224.3 232.939 223.411 232.18 222.752 231.205C222.092 230.23 221.763 229.155 221.763 227.98C221.763 226.403 222.164 225.185 222.967 224.325C223.769 223.436 225.088 222.806 226.923 222.433C228.757 222.032 231.309 221.831 234.577 221.831H235.523V220.412C235.523 218.692 235.164 217.431 234.448 216.628C233.76 215.825 232.627 215.424 231.051 215.424C229.101 215.424 227.123 215.954 225.117 217.015C224.343 217.502 223.798 217.746 223.483 217.746C223.139 217.746 222.852 217.617 222.623 217.359C222.393 217.101 222.279 216.771 222.279 216.37C222.279 215.969 222.393 215.625 222.623 215.338C222.881 215.023 223.282 214.707 223.827 214.392C224.83 213.819 225.962 213.374 227.224 213.059C228.514 212.715 229.789 212.543 231.051 212.543ZM229.632 231.549C231.352 231.549 232.756 230.976 233.846 229.829C234.964 228.654 235.523 227.149 235.523 225.314V224.067H234.749C232.226 224.067 230.305 224.182 228.987 224.411C227.668 224.612 226.722 224.97 226.149 225.486C225.604 225.973 225.332 226.704 225.332 227.679C225.332 228.797 225.733 229.729 226.536 230.474C227.367 231.191 228.399 231.549 229.632 231.549ZM251.616 234.301C248.606 234.301 246.098 233.627 244.091 232.28C243.547 231.936 243.274 231.492 243.274 230.947C243.274 230.603 243.403 230.302 243.661 230.044C243.948 229.757 244.278 229.614 244.65 229.614C244.966 229.614 245.252 229.7 245.51 229.872C246.428 230.417 247.331 230.818 248.219 231.076C249.137 231.334 250.197 231.463 251.401 231.463C252.863 231.463 254.153 231.148 255.271 230.517C256.418 229.886 256.991 228.955 256.991 227.722C256.991 225.629 255.558 224.583 252.691 224.583H249.423C249.022 224.583 248.692 224.454 248.434 224.196C248.176 223.938 248.047 223.608 248.047 223.207C248.047 222.834 248.176 222.533 248.434 222.304C248.692 222.046 249.022 221.917 249.423 221.917H252.39C253.652 221.917 254.669 221.602 255.443 220.971C256.217 220.34 256.604 219.523 256.604 218.52C256.604 217.545 256.217 216.786 255.443 216.241C254.669 215.696 253.523 215.424 252.003 215.424C250.742 215.424 249.638 215.567 248.692 215.854C247.775 216.141 246.901 216.542 246.069 217.058C245.783 217.201 245.525 217.273 245.295 217.273C244.894 217.273 244.55 217.144 244.263 216.886C244.005 216.599 243.876 216.27 243.876 215.897C243.876 215.352 244.163 214.937 244.736 214.65C247.001 213.245 249.581 212.543 252.476 212.543C255.114 212.543 257.063 213.059 258.324 214.091C259.586 215.094 260.216 216.456 260.216 218.176C260.216 219.208 259.887 220.183 259.227 221.1C258.568 221.989 257.651 222.634 256.475 223.035C257.909 223.293 258.955 223.852 259.614 224.712C260.274 225.572 260.603 226.633 260.603 227.894C260.603 229.872 259.743 231.434 258.023 232.581C256.303 233.728 254.168 234.301 251.616 234.301ZM274.261 212.543C279.507 212.543 282.13 215.295 282.13 220.799V232.495C282.13 233.011 281.972 233.427 281.657 233.742C281.37 234.057 280.969 234.215 280.453 234.215C279.937 234.215 279.521 234.057 279.206 233.742C278.89 233.427 278.733 233.011 278.733 232.495V230.431C278.188 231.664 277.357 232.624 276.239 233.312C275.121 233.971 273.831 234.301 272.369 234.301C271.021 234.301 269.774 234.029 268.628 233.484C267.51 232.939 266.621 232.18 265.962 231.205C265.302 230.23 264.973 229.155 264.973 227.98C264.973 226.403 265.374 225.185 266.177 224.325C266.979 223.436 268.298 222.806 270.133 222.433C271.967 222.032 274.519 221.831 277.787 221.831H278.733V220.412C278.733 218.692 278.374 217.431 277.658 216.628C276.97 215.825 275.837 215.424 274.261 215.424C272.311 215.424 270.333 215.954 268.327 217.015C267.553 217.502 267.008 217.746 266.693 217.746C266.349 217.746 266.062 217.617 265.833 217.359C265.603 217.101 265.489 216.771 265.489 216.37C265.489 215.969 265.603 215.625 265.833 215.338C266.091 215.023 266.492 214.707 267.037 214.392C268.04 213.819 269.172 213.374 270.434 213.059C271.724 212.715 272.999 212.543 274.261 212.543ZM272.842 231.549C274.562 231.549 275.966 230.976 277.056 229.829C278.174 228.654 278.733 227.149 278.733 225.314V224.067H277.959C275.436 224.067 273.515 224.182 272.197 224.411C270.878 224.612 269.932 224.97 269.359 225.486C268.814 225.973 268.542 226.704 268.542 227.679C268.542 228.797 268.943 229.729 269.746 230.474C270.577 231.191 271.609 231.549 272.842 231.549ZM294.912 234.215C294.396 234.215 293.981 234.072 293.665 233.785C293.35 233.47 293.192 233.054 293.192 232.538V215.811H287.043C286.613 215.811 286.269 215.682 286.011 215.424C285.753 215.166 285.624 214.836 285.624 214.435C285.624 214.034 285.753 213.704 286.011 213.446C286.269 213.188 286.613 213.059 287.043 213.059H302.781C303.211 213.059 303.555 213.188 303.813 213.446C304.071 213.704 304.2 214.034 304.2 214.435C304.2 214.836 304.071 215.166 303.813 215.424C303.555 215.682 303.211 215.811 302.781 215.811H296.675V232.538C296.675 233.054 296.503 233.47 296.159 233.785C295.844 234.072 295.428 234.215 294.912 234.215ZM309.5 234C308.955 234 308.511 233.842 308.167 233.527C307.851 233.212 307.694 232.796 307.694 232.28V214.349C307.694 213.833 307.851 213.417 308.167 213.102C308.482 212.787 308.912 212.629 309.457 212.629C309.973 212.629 310.388 212.787 310.704 213.102C311.019 213.417 311.177 213.833 311.177 214.349V220.541H315.606C320.938 220.541 323.604 222.677 323.604 226.948C323.604 228.525 323.217 229.843 322.443 230.904C321.669 231.965 320.651 232.753 319.39 233.269C318.157 233.756 316.838 234 315.434 234H309.5ZM314.875 231.377C316.337 231.377 317.569 231.019 318.573 230.302C319.576 229.585 320.078 228.482 320.078 226.991C320.078 224.44 318.343 223.164 314.875 223.164H311.177V231.377H314.875ZM344.826 212.543C347.951 212.543 350.387 213.489 352.136 215.381C353.913 217.244 354.802 219.824 354.802 223.121C354.802 225.3 354.372 227.235 353.512 228.926C352.681 230.617 351.491 231.936 349.943 232.882C348.395 233.828 346.603 234.301 344.568 234.301C343.393 234.301 342.232 234.129 341.085 233.785C339.967 233.441 338.949 232.954 338.032 232.323C337.516 232.008 337.258 231.592 337.258 231.076C337.258 230.675 337.387 230.345 337.645 230.087C337.903 229.8 338.233 229.657 338.634 229.657C338.892 229.657 339.136 229.729 339.365 229.872C340.254 230.417 341.085 230.818 341.859 231.076C342.633 231.305 343.45 231.42 344.31 231.42C346.259 231.42 347.836 230.818 349.04 229.614C350.244 228.41 350.932 226.733 351.104 224.583H342.289C341.888 224.583 341.558 224.454 341.3 224.196C341.042 223.938 340.913 223.608 340.913 223.207C340.913 222.834 341.042 222.533 341.3 222.304C341.558 222.046 341.888 221.917 342.289 221.917H351.061C350.946 219.796 350.316 218.19 349.169 217.101C348.022 215.983 346.46 215.424 344.482 215.424C343.565 215.424 342.791 215.539 342.16 215.768C341.529 215.969 340.856 216.27 340.139 216.671C339.537 217.015 339.107 217.187 338.849 217.187C338.419 217.187 338.075 217.058 337.817 216.8C337.559 216.513 337.43 216.169 337.43 215.768C337.43 215.539 337.487 215.309 337.602 215.08C337.745 214.851 337.932 214.679 338.161 214.564C339.078 213.933 340.11 213.446 341.257 213.102C342.432 212.729 343.622 212.543 344.826 212.543ZM361.654 234C361.109 234 360.665 233.842 360.321 233.527C360.006 233.212 359.848 232.796 359.848 232.28V214.865C359.848 214.32 360.006 213.89 360.321 213.575C360.636 213.231 361.066 213.059 361.611 213.059H369.05C371.343 213.059 373.121 213.503 374.382 214.392C375.643 215.281 376.274 216.614 376.274 218.391C376.274 219.423 375.973 220.383 375.371 221.272C374.769 222.161 373.852 222.82 372.619 223.25C373.909 223.479 374.927 224.024 375.672 224.884C376.446 225.744 376.833 226.833 376.833 228.152C376.833 229.127 376.561 230.058 376.016 230.947C375.5 231.836 374.669 232.567 373.522 233.14C372.375 233.713 370.942 234 369.222 234H361.654ZM368.792 222.089C369.996 222.089 370.971 221.788 371.716 221.186C372.461 220.555 372.834 219.71 372.834 218.649C372.834 216.642 371.444 215.639 368.663 215.639H363.331V222.089H368.792ZM368.878 231.42C371.831 231.42 373.307 230.288 373.307 228.023C373.307 226.876 372.877 226.016 372.017 225.443C371.157 224.87 369.982 224.583 368.491 224.583H363.331V231.42H368.878ZM390.495 212.543C395.741 212.543 398.364 215.295 398.364 220.799V232.495C398.364 233.011 398.206 233.427 397.891 233.742C397.604 234.057 397.203 234.215 396.687 234.215C396.171 234.215 395.755 234.057 395.44 233.742C395.125 233.427 394.967 233.011 394.967 232.495V230.431C394.422 231.664 393.591 232.624 392.473 233.312C391.355 233.971 390.065 234.301 388.603 234.301C387.256 234.301 386.009 234.029 384.862 233.484C383.744 232.939 382.855 232.18 382.196 231.205C381.537 230.23 381.207 229.155 381.207 227.98C381.207 226.403 381.608 225.185 382.411 224.325C383.214 223.436 384.532 222.806 386.367 222.433C388.202 222.032 390.753 221.831 394.021 221.831H394.967V220.412C394.967 218.692 394.609 217.431 393.892 216.628C393.204 215.825 392.072 215.424 390.495 215.424C388.546 215.424 386.568 215.954 384.561 217.015C383.787 217.502 383.242 217.746 382.927 217.746C382.583 217.746 382.296 217.617 382.067 217.359C381.838 217.101 381.723 216.771 381.723 216.37C381.723 215.969 381.838 215.625 382.067 215.338C382.325 215.023 382.726 214.707 383.271 214.392C384.274 213.819 385.407 213.374 386.668 213.059C387.958 212.715 389.234 212.543 390.495 212.543ZM389.076 231.549C390.796 231.549 392.201 230.976 393.29 229.829C394.408 228.654 394.967 227.149 394.967 225.314V224.067H394.193C391.67 224.067 389.75 224.182 388.431 224.411C387.112 224.612 386.166 224.97 385.593 225.486C385.048 225.973 384.776 226.704 384.776 227.679C384.776 228.797 385.177 229.729 385.98 230.474C386.811 231.191 387.843 231.549 389.076 231.549ZM414.501 222.648C415.533 222.935 416.364 223.408 416.995 224.067C417.625 224.726 418.371 225.787 419.231 227.249L421.94 231.678C422.112 231.965 422.198 232.266 422.198 232.581C422.198 233.04 422.026 233.427 421.682 233.742C421.338 234.057 420.936 234.215 420.478 234.215C419.847 234.215 419.345 233.914 418.973 233.312L415.705 227.808C414.959 226.575 414.257 225.744 413.598 225.314C412.938 224.884 411.992 224.669 410.76 224.669H408.352V232.495C408.352 233.04 408.194 233.47 407.879 233.785C407.563 234.072 407.133 234.215 406.589 234.215C406.073 234.215 405.657 234.072 405.342 233.785C405.026 233.47 404.869 233.04 404.869 232.495V214.349C404.869 213.833 405.026 213.417 405.342 213.102C405.657 212.787 406.073 212.629 406.589 212.629C407.133 212.629 407.563 212.787 407.879 213.102C408.194 213.417 408.352 213.833 408.352 214.349V221.96H411.276L418.414 213.36C418.815 212.873 419.259 212.629 419.747 212.629C420.148 212.629 420.492 212.772 420.779 213.059C421.094 213.346 421.252 213.704 421.252 214.134C421.252 214.507 421.094 214.894 420.779 215.295L414.501 222.648ZM441.669 213.704C441.984 213.016 442.486 212.672 443.174 212.672C443.604 212.672 443.991 212.815 444.335 213.102C444.679 213.389 444.851 213.747 444.851 214.177C444.851 214.435 444.793 214.664 444.679 214.865L432.596 240.923C432.452 241.238 432.237 241.482 431.951 241.654C431.693 241.826 431.42 241.912 431.134 241.912C430.704 241.912 430.317 241.769 429.973 241.482C429.657 241.224 429.5 240.88 429.5 240.45C429.5 240.221 429.557 239.991 429.672 239.762L432.682 233.269L424.168 214.865C424.053 214.664 423.996 214.449 423.996 214.22C423.996 213.79 424.182 213.417 424.555 213.102C424.956 212.787 425.386 212.629 425.845 212.629C426.131 212.629 426.404 212.715 426.662 212.887C426.948 213.059 427.163 213.303 427.307 213.618L434.488 229.743L441.669 213.704ZM456.843 212.543C462.089 212.543 464.712 215.295 464.712 220.799V232.495C464.712 233.011 464.554 233.427 464.239 233.742C463.952 234.057 463.551 234.215 463.035 234.215C462.519 234.215 462.103 234.057 461.788 233.742C461.472 233.427 461.315 233.011 461.315 232.495V230.431C460.77 231.664 459.939 232.624 458.821 233.312C457.703 233.971 456.413 234.301 454.951 234.301C453.603 234.301 452.356 234.029 451.21 233.484C450.092 232.939 449.203 232.18 448.544 231.205C447.884 230.23 447.555 229.155 447.555 227.98C447.555 226.403 447.956 225.185 448.759 224.325C449.561 223.436 450.88 222.806 452.715 222.433C454.549 222.032 457.101 221.831 460.369 221.831H461.315V220.412C461.315 218.692 460.956 217.431 460.24 216.628C459.552 215.825 458.419 215.424 456.843 215.424C454.893 215.424 452.915 215.954 450.909 217.015C450.135 217.502 449.59 217.746 449.275 217.746C448.931 217.746 448.644 217.617 448.415 217.359C448.185 217.101 448.071 216.771 448.071 216.37C448.071 215.969 448.185 215.625 448.415 215.338C448.673 215.023 449.074 214.707 449.619 214.392C450.622 213.819 451.754 213.374 453.016 213.059C454.306 212.715 455.581 212.543 456.843 212.543ZM455.424 231.549C457.144 231.549 458.548 230.976 459.638 229.829C460.756 228.654 461.315 227.149 461.315 225.314V224.067H460.541C458.018 224.067 456.097 224.182 454.779 224.411C453.46 224.612 452.514 224.97 451.941 225.486C451.396 225.973 451.124 226.704 451.124 227.679C451.124 228.797 451.525 229.729 452.328 230.474C453.159 231.191 454.191 231.549 455.424 231.549ZM477.494 234.215C476.978 234.215 476.563 234.072 476.247 233.785C475.932 233.47 475.774 233.054 475.774 232.538V215.811H469.625C469.195 215.811 468.851 215.682 468.593 215.424C468.335 215.166 468.206 214.836 468.206 214.435C468.206 214.034 468.335 213.704 468.593 213.446C468.851 213.188 469.195 213.059 469.625 213.059H485.363C485.793 213.059 486.137 213.188 486.395 213.446C486.653 213.704 486.782 214.034 486.782 214.435C486.782 214.836 486.653 215.166 486.395 215.424C486.137 215.682 485.793 215.811 485.363 215.811H479.257V232.538C479.257 233.054 479.085 233.47 478.741 233.785C478.426 234.072 478.01 234.215 477.494 234.215ZM498.922 234.301C496.944 234.301 495.195 233.857 493.676 232.968C492.185 232.079 491.024 230.818 490.193 229.184C489.39 227.521 488.989 225.601 488.989 223.422C488.989 221.243 489.39 219.337 490.193 217.703C491.024 216.04 492.185 214.765 493.676 213.876C495.195 212.987 496.944 212.543 498.922 212.543C500.9 212.543 502.648 212.987 504.168 213.876C505.687 214.765 506.848 216.04 507.651 217.703C508.482 219.337 508.898 221.243 508.898 223.422C508.898 225.601 508.482 227.521 507.651 229.184C506.848 230.818 505.687 232.079 504.168 232.968C502.648 233.857 500.9 234.301 498.922 234.301ZM498.922 231.42C500.986 231.42 502.562 230.746 503.652 229.399C504.77 228.023 505.329 226.031 505.329 223.422C505.329 220.871 504.77 218.907 503.652 217.531C502.534 216.126 500.957 215.424 498.922 215.424C496.886 215.424 495.31 216.126 494.192 217.531C493.074 218.907 492.515 220.871 492.515 223.422C492.515 226.002 493.059 227.98 494.149 229.356C495.267 230.732 496.858 231.42 498.922 231.42ZM524.622 212.543C526.457 212.543 528.077 213.002 529.481 213.919C530.886 214.836 531.975 216.126 532.749 217.789C533.523 219.423 533.91 221.329 533.91 223.508C533.91 225.687 533.523 227.593 532.749 229.227C531.975 230.832 530.886 232.079 529.481 232.968C528.105 233.857 526.486 234.301 524.622 234.301C522.988 234.301 521.555 233.943 520.322 233.226C519.118 232.509 518.201 231.492 517.57 230.173V240.278C517.57 240.794 517.413 241.195 517.097 241.482C516.811 241.797 516.395 241.955 515.85 241.955C515.306 241.955 514.876 241.797 514.56 241.482C514.245 241.167 514.087 240.765 514.087 240.278V214.349C514.087 213.833 514.245 213.417 514.56 213.102C514.876 212.787 515.306 212.629 515.85 212.629C516.395 212.629 516.811 212.787 517.097 213.102C517.413 213.417 517.57 213.833 517.57 214.349V216.671C518.201 215.352 519.118 214.335 520.322 213.618C521.555 212.901 522.988 212.543 524.622 212.543ZM523.934 231.42C525.97 231.42 527.546 230.732 528.664 229.356C529.782 227.98 530.341 226.031 530.341 223.508C530.341 220.985 529.782 219.022 528.664 217.617C527.546 216.184 525.97 215.467 523.934 215.467C521.899 215.467 520.322 216.155 519.204 217.531C518.115 218.907 517.57 220.871 517.57 223.422C517.57 225.973 518.115 227.951 519.204 229.356C520.322 230.732 521.899 231.42 523.934 231.42ZM549.04 239.676C548.552 239.676 548.151 239.518 547.836 239.203C547.549 238.916 547.406 238.515 547.406 237.999V233.054C547.406 232.509 547.549 232.079 547.836 231.764C548.122 231.42 548.495 231.248 548.954 231.248H549.728C550.76 229.757 551.491 227.98 551.921 225.916C552.351 223.852 552.566 221.157 552.566 217.832V214.865C552.566 214.32 552.723 213.89 553.039 213.575C553.354 213.231 553.784 213.059 554.329 213.059H565.122C565.666 213.059 566.096 213.217 566.412 213.532C566.756 213.847 566.928 214.277 566.928 214.822V231.248H568.39C568.934 231.248 569.364 231.406 569.68 231.721C570.024 232.036 570.196 232.466 570.196 233.011V237.999C570.196 238.515 570.052 238.916 569.766 239.203C569.479 239.518 569.078 239.676 568.562 239.676C568.074 239.676 567.673 239.518 567.358 239.203C567.071 238.916 566.928 238.515 566.928 237.999V234H550.674V237.999C550.674 238.515 550.516 238.916 550.201 239.203C549.914 239.518 549.527 239.676 549.04 239.676ZM563.488 215.811H555.705V217.832C555.705 224.139 554.787 228.611 552.953 231.248H563.488V215.811ZM590.179 229.141C590.494 229.141 590.767 229.27 590.996 229.528C591.225 229.786 591.34 230.116 591.34 230.517C591.34 231.234 590.838 231.893 589.835 232.495C588.803 233.097 587.714 233.556 586.567 233.871C585.42 234.158 584.302 234.301 583.213 234.301C579.974 234.301 577.408 233.341 575.516 231.42C573.653 229.499 572.721 226.848 572.721 223.465C572.721 221.315 573.137 219.423 573.968 217.789C574.799 216.126 575.96 214.836 577.451 213.919C578.97 213.002 580.69 212.543 582.611 212.543C585.334 212.543 587.499 213.432 589.104 215.209C590.709 216.986 591.512 219.394 591.512 222.433C591.512 223.006 591.397 223.422 591.168 223.68C590.939 223.938 590.566 224.067 590.05 224.067H576.204C576.462 228.998 578.798 231.463 583.213 231.463C584.331 231.463 585.291 231.32 586.094 231.033C586.897 230.718 587.757 230.302 588.674 229.786C589.419 229.356 589.921 229.141 590.179 229.141ZM582.654 215.252C580.819 215.252 579.343 215.825 578.225 216.972C577.136 218.119 576.491 219.738 576.29 221.831H588.459C588.402 219.71 587.871 218.09 586.868 216.972C585.865 215.825 584.46 215.252 582.654 215.252ZM598.364 234C597.791 234 597.346 233.857 597.031 233.57C596.716 233.255 596.558 232.825 596.558 232.28V214.349C596.558 213.833 596.716 213.417 597.031 213.102C597.346 212.787 597.762 212.629 598.278 212.629C598.823 212.629 599.253 212.787 599.568 213.102C599.883 213.417 600.041 213.833 600.041 214.349V231.248H608.168V214.349C608.168 213.833 608.311 213.417 608.598 213.102C608.913 212.787 609.329 212.629 609.845 212.629C610.39 212.629 610.82 212.787 611.135 213.102C611.45 213.417 611.608 213.833 611.608 214.349V231.248H619.735V214.349C619.735 213.833 619.893 213.417 620.208 213.102C620.523 212.787 620.939 212.629 621.455 212.629C621.971 212.629 622.387 212.787 622.702 213.102C623.017 213.417 623.175 213.833 623.175 214.349V232.194C623.204 232.739 623.06 233.183 622.745 233.527C622.43 233.842 622 234 621.455 234H598.364ZM645.777 229.141C646.092 229.141 646.364 229.27 646.594 229.528C646.823 229.786 646.938 230.116 646.938 230.517C646.938 231.234 646.436 231.893 645.433 232.495C644.401 233.097 643.311 233.556 642.165 233.871C641.018 234.158 639.9 234.301 638.811 234.301C635.571 234.301 633.006 233.341 631.114 231.42C629.25 229.499 628.319 226.848 628.319 223.465C628.319 221.315 628.734 219.423 629.566 217.789C630.397 216.126 631.558 214.836 633.049 213.919C634.568 213.002 636.288 212.543 638.209 212.543C640.932 212.543 643.096 213.432 644.702 215.209C646.307 216.986 647.11 219.394 647.11 222.433C647.11 223.006 646.995 223.422 646.766 223.68C646.536 223.938 646.164 224.067 645.648 224.067H631.802C632.06 228.998 634.396 231.463 638.811 231.463C639.929 231.463 640.889 231.32 641.692 231.033C642.494 230.718 643.354 230.302 644.272 229.786C645.017 229.356 645.519 229.141 645.777 229.141ZM638.252 215.252C636.417 215.252 634.941 215.825 633.823 216.972C632.733 218.119 632.088 219.738 631.888 221.831H644.057C643.999 219.71 643.469 218.09 642.466 216.972C641.462 215.825 640.058 215.252 638.252 215.252ZM653.962 234C653.417 234 652.973 233.842 652.629 233.527C652.313 233.212 652.156 232.796 652.156 232.28V214.865C652.156 214.32 652.313 213.89 652.629 213.575C652.944 213.231 653.374 213.059 653.919 213.059H661.358C663.651 213.059 665.428 213.503 666.69 214.392C667.951 215.281 668.582 216.614 668.582 218.391C668.582 219.423 668.281 220.383 667.679 221.272C667.077 222.161 666.159 222.82 664.927 223.25C666.217 223.479 667.234 224.024 667.98 224.884C668.754 225.744 669.141 226.833 669.141 228.152C669.141 229.127 668.868 230.058 668.324 230.947C667.808 231.836 666.976 232.567 665.83 233.14C664.683 233.713 663.25 234 661.53 234H653.962ZM661.1 222.089C662.304 222.089 663.278 221.788 664.024 221.186C664.769 220.555 665.142 219.71 665.142 218.649C665.142 216.642 663.751 215.639 660.971 215.639H655.639V222.089H661.1ZM661.186 231.42C664.138 231.42 665.615 230.288 665.615 228.023C665.615 226.876 665.185 226.016 664.325 225.443C663.465 224.87 662.289 224.583 660.799 224.583H655.639V231.42H661.186ZM682.932 234.301C680.954 234.301 679.205 233.857 677.686 232.968C676.195 232.079 675.034 230.818 674.203 229.184C673.4 227.521 672.999 225.601 672.999 223.422C672.999 221.243 673.4 219.337 674.203 217.703C675.034 216.04 676.195 214.765 677.686 213.876C679.205 212.987 680.954 212.543 682.932 212.543C684.91 212.543 686.658 212.987 688.178 213.876C689.697 214.765 690.858 216.04 691.661 217.703C692.492 219.337 692.908 221.243 692.908 223.422C692.908 225.601 692.492 227.521 691.661 229.184C690.858 230.818 689.697 232.079 688.178 232.968C686.658 233.857 684.91 234.301 682.932 234.301ZM682.932 231.42C684.996 231.42 686.572 230.746 687.662 229.399C688.78 228.023 689.339 226.031 689.339 223.422C689.339 220.871 688.78 218.907 687.662 217.531C686.544 216.126 684.967 215.424 682.932 215.424C680.896 215.424 679.32 216.126 678.202 217.531C677.084 218.907 676.525 220.871 676.525 223.422C676.525 226.002 677.069 227.98 678.159 229.356C679.277 230.732 680.868 231.42 682.932 231.42ZM151.945 293C151.4 293 150.956 292.842 150.612 292.527C150.297 292.212 150.139 291.796 150.139 291.28V273.865C150.139 273.32 150.297 272.89 150.612 272.575C150.927 272.231 151.357 272.059 151.902 272.059H159.341C161.634 272.059 163.412 272.503 164.673 273.392C165.934 274.281 166.565 275.614 166.565 277.391C166.565 278.423 166.264 279.383 165.662 280.272C165.06 281.161 164.143 281.82 162.91 282.25C164.2 282.479 165.218 283.024 165.963 283.884C166.737 284.744 167.124 285.833 167.124 287.152C167.124 288.127 166.852 289.058 166.307 289.947C165.791 290.836 164.96 291.567 163.813 292.14C162.666 292.713 161.233 293 159.513 293H151.945ZM159.083 281.089C160.287 281.089 161.262 280.788 162.007 280.186C162.752 279.555 163.125 278.71 163.125 277.649C163.125 275.642 161.735 274.639 158.954 274.639H153.622V281.089H159.083ZM159.169 290.42C162.122 290.42 163.598 289.288 163.598 287.023C163.598 285.876 163.168 285.016 162.308 284.443C161.448 283.87 160.273 283.583 158.782 283.583H153.622V290.42H159.169ZM210.749 262.47C211.294 262.47 211.709 262.642 211.996 262.986C212.311 263.301 212.469 263.731 212.469 264.276V291.495C212.469 292.011 212.326 292.427 212.039 292.742C211.752 293.057 211.351 293.215 210.835 293.215C210.319 293.215 209.932 293.057 209.674 292.742C209.416 292.427 209.287 292.011 209.287 291.495V269.522L199.956 287.41C199.555 288.241 198.967 288.657 198.193 288.657C197.448 288.657 196.86 288.241 196.43 287.41L187.056 269.737V291.495C187.056 292.011 186.913 292.427 186.626 292.742C186.368 293.057 185.981 293.215 185.465 293.215C184.949 293.215 184.548 293.057 184.261 292.742C183.974 292.427 183.831 292.011 183.831 291.495V264.276C183.831 263.731 183.989 263.301 184.304 262.986C184.619 262.642 185.049 262.47 185.594 262.47C186.311 262.47 186.884 262.886 187.314 263.717L198.236 284.658L209.029 263.717C209.258 263.258 209.502 262.943 209.76 262.771C210.047 262.57 210.376 262.47 210.749 262.47ZM228.156 293.301C226.178 293.301 224.429 292.857 222.91 291.968C221.419 291.079 220.258 289.818 219.427 288.184C218.624 286.521 218.223 284.601 218.223 282.422C218.223 280.243 218.624 278.337 219.427 276.703C220.258 275.04 221.419 273.765 222.91 272.876C224.429 271.987 226.178 271.543 228.156 271.543C230.134 271.543 231.883 271.987 233.402 272.876C234.921 273.765 236.082 275.04 236.885 276.703C237.716 278.337 238.132 280.243 238.132 282.422C238.132 284.601 237.716 286.521 236.885 288.184C236.082 289.818 234.921 291.079 233.402 291.968C231.883 292.857 230.134 293.301 228.156 293.301ZM228.156 290.42C230.22 290.42 231.797 289.746 232.886 288.399C234.004 287.023 234.563 285.031 234.563 282.422C234.563 279.871 234.004 277.907 232.886 276.531C231.768 275.126 230.191 274.424 228.156 274.424C226.121 274.424 224.544 275.126 223.426 276.531C222.308 277.907 221.749 279.871 221.749 282.422C221.749 285.002 222.294 286.98 223.383 288.356C224.501 289.732 226.092 290.42 228.156 290.42ZM251.965 293.301C250.015 293.301 248.281 292.857 246.762 291.968C245.271 291.079 244.11 289.818 243.279 288.184C242.476 286.55 242.075 284.658 242.075 282.508C242.075 280.358 242.49 278.452 243.322 276.789C244.182 275.126 245.371 273.836 246.891 272.919C248.41 272.002 250.159 271.543 252.137 271.543C253.226 271.543 254.301 271.701 255.362 272.016C256.451 272.303 257.397 272.733 258.2 273.306C258.716 273.65 259.074 273.994 259.275 274.338C259.504 274.653 259.619 275.012 259.619 275.413C259.619 275.814 259.504 276.144 259.275 276.402C259.074 276.66 258.802 276.789 258.458 276.789C258.257 276.789 258.042 276.732 257.813 276.617C257.583 276.502 257.383 276.388 257.211 276.273C257.067 276.158 256.967 276.087 256.91 276.058C256.164 275.571 255.448 275.184 254.76 274.897C254.1 274.61 253.283 274.467 252.309 274.467C250.216 274.467 248.582 275.184 247.407 276.617C246.26 278.022 245.687 279.985 245.687 282.508C245.687 285.031 246.26 286.98 247.407 288.356C248.582 289.732 250.216 290.42 252.309 290.42C253.283 290.42 254.115 290.277 254.803 289.99C255.519 289.703 256.236 289.316 256.953 288.829C257.268 288.628 257.569 288.456 257.856 288.313C258.142 288.17 258.386 288.098 258.587 288.098C258.902 288.098 259.16 288.227 259.361 288.485C259.59 288.743 259.705 289.073 259.705 289.474C259.705 289.847 259.604 290.191 259.404 290.506C259.203 290.793 258.83 291.122 258.286 291.495C257.483 292.04 256.508 292.484 255.362 292.828C254.244 293.143 253.111 293.301 251.965 293.301ZM273.659 281.648C274.691 281.935 275.522 282.408 276.153 283.067C276.784 283.726 277.529 284.787 278.389 286.249L281.098 290.678C281.27 290.965 281.356 291.266 281.356 291.581C281.356 292.04 281.184 292.427 280.84 292.742C280.496 293.057 280.095 293.215 279.636 293.215C279.005 293.215 278.504 292.914 278.131 292.312L274.863 286.808C274.118 285.575 273.415 284.744 272.756 284.314C272.097 283.884 271.151 283.669 269.918 283.669H267.51V291.495C267.51 292.04 267.352 292.47 267.037 292.785C266.722 293.072 266.292 293.215 265.747 293.215C265.231 293.215 264.815 293.072 264.5 292.785C264.185 292.47 264.027 292.04 264.027 291.495V273.349C264.027 272.833 264.185 272.417 264.5 272.102C264.815 271.787 265.231 271.629 265.747 271.629C266.292 271.629 266.722 271.787 267.037 272.102C267.352 272.417 267.51 272.833 267.51 273.349V280.96H270.434L277.572 272.36C277.973 271.873 278.418 271.629 278.905 271.629C279.306 271.629 279.65 271.772 279.937 272.059C280.252 272.346 280.41 272.704 280.41 273.134C280.41 273.507 280.252 273.894 279.937 274.295L273.659 281.648ZM287.454 293C286.909 293 286.465 292.842 286.121 292.527C285.805 292.212 285.648 291.796 285.648 291.28V273.865C285.648 273.32 285.805 272.89 286.121 272.575C286.436 272.231 286.866 272.059 287.411 272.059H294.85C297.143 272.059 298.92 272.503 300.182 273.392C301.443 274.281 302.074 275.614 302.074 277.391C302.074 278.423 301.773 279.383 301.171 280.272C300.569 281.161 299.651 281.82 298.419 282.25C299.709 282.479 300.726 283.024 301.472 283.884C302.246 284.744 302.633 285.833 302.633 287.152C302.633 288.127 302.36 289.058 301.816 289.947C301.3 290.836 300.468 291.567 299.322 292.14C298.175 292.713 296.742 293 295.022 293H287.454ZM294.592 281.089C295.796 281.089 296.77 280.788 297.516 280.186C298.261 279.555 298.634 278.71 298.634 277.649C298.634 275.642 297.243 274.639 294.463 274.639H289.131V281.089H294.592ZM294.678 290.42C297.63 290.42 299.107 289.288 299.107 287.023C299.107 285.876 298.677 285.016 297.817 284.443C296.957 283.87 295.781 283.583 294.291 283.583H289.131V290.42H294.678ZM323.949 288.141C324.264 288.141 324.536 288.27 324.766 288.528C324.995 288.786 325.11 289.116 325.11 289.517C325.11 290.234 324.608 290.893 323.605 291.495C322.573 292.097 321.483 292.556 320.337 292.871C319.19 293.158 318.072 293.301 316.983 293.301C313.743 293.301 311.178 292.341 309.286 290.42C307.422 288.499 306.491 285.848 306.491 282.465C306.491 280.315 306.906 278.423 307.738 276.789C308.569 275.126 309.73 273.836 311.221 272.919C312.74 272.002 314.46 271.543 316.381 271.543C319.104 271.543 321.268 272.432 322.874 274.209C324.479 275.986 325.282 278.394 325.282 281.433C325.282 282.006 325.167 282.422 324.938 282.68C324.708 282.938 324.336 283.067 323.82 283.067H309.974C310.232 287.998 312.568 290.463 316.983 290.463C318.101 290.463 319.061 290.32 319.864 290.033C320.666 289.718 321.526 289.302 322.444 288.786C323.189 288.356 323.691 288.141 323.949 288.141ZM316.424 274.252C314.589 274.252 313.113 274.825 311.995 275.972C310.905 277.119 310.26 278.738 310.06 280.831H322.229C322.171 278.71 321.641 277.09 320.638 275.972C319.634 274.825 318.23 274.252 316.424 274.252Z" fill="#333333" fill-opacity="0.54"/>
<rect x="147.5" y="347.5" width="230" height="70" rx="35" stroke="#0098D0"/>
<rect x="398.5" y="347.5" width="296" height="70" rx="35" stroke="#0098D0"/>
<rect x="715.5" y="347.5" width="184" height="70" rx="35" stroke="#0098D0"/>
<path d="M196.775 376.075C196.775 378.842 196.625 381.117 196.325 382.9C196.025 384.667 195.55 386.1 194.9 387.2C194.267 388.3 193.408 389.2 192.325 389.9C192.142 390.017 191.95 390.075 191.75 390.075C191.5 390.075 191.283 389.983 191.1 389.8C190.933 389.6 190.85 389.375 190.85 389.125C190.85 388.725 191.05 388.417 191.45 388.2C192.25 387.8 192.892 387.158 193.375 386.275C193.858 385.375 194.208 384.133 194.425 382.55C194.658 380.95 194.775 378.892 194.775 376.375V373.375C194.775 373.058 194.858 372.817 195.025 372.65C195.208 372.467 195.458 372.375 195.775 372.375H205.45C205.767 372.375 206.008 372.467 206.175 372.65C206.358 372.817 206.45 373.058 206.45 373.375V389.1C206.45 389.417 206.358 389.667 206.175 389.85C205.992 390.033 205.75 390.125 205.45 390.125C205.133 390.125 204.883 390.033 204.7 389.85C204.517 389.667 204.425 389.417 204.425 389.1V374.1H196.775V376.075ZM219.928 387.175C220.111 387.175 220.27 387.25 220.403 387.4C220.536 387.55 220.603 387.742 220.603 387.975C220.603 388.392 220.311 388.775 219.728 389.125C219.128 389.475 218.495 389.742 217.828 389.925C217.161 390.092 216.511 390.175 215.878 390.175C213.995 390.175 212.503 389.617 211.403 388.5C210.32 387.383 209.778 385.842 209.778 383.875C209.778 382.625 210.02 381.525 210.503 380.575C210.986 379.608 211.661 378.858 212.528 378.325C213.411 377.792 214.411 377.525 215.528 377.525C217.111 377.525 218.37 378.042 219.303 379.075C220.236 380.108 220.703 381.508 220.703 383.275C220.703 383.608 220.636 383.85 220.503 384C220.37 384.15 220.153 384.225 219.853 384.225H211.803C211.953 387.092 213.311 388.525 215.878 388.525C216.528 388.525 217.086 388.442 217.553 388.275C218.02 388.092 218.52 387.85 219.053 387.55C219.486 387.3 219.778 387.175 219.928 387.175ZM215.553 379.1C214.486 379.1 213.628 379.433 212.978 380.1C212.345 380.767 211.97 381.708 211.853 382.925H218.928C218.895 381.692 218.586 380.75 218.003 380.1C217.42 379.433 216.603 379.1 215.553 379.1ZM229.087 390.175C227.737 390.175 226.62 389.833 225.737 389.15C224.87 388.467 224.237 387.592 223.837 386.525C223.453 385.442 223.262 384.275 223.262 383.025C223.262 381.058 223.428 379.458 223.762 378.225C224.112 376.992 224.603 376.033 225.237 375.35C225.87 374.667 226.687 374.1 227.687 373.65C228.22 373.4 229.028 373.117 230.112 372.8C231.278 372.45 232.22 372.117 232.937 371.8C233.087 371.733 233.245 371.7 233.412 371.7C233.662 371.7 233.862 371.783 234.012 371.95C234.162 372.1 234.237 372.283 234.237 372.5C234.237 372.667 234.187 372.833 234.087 373C233.987 373.15 233.837 373.275 233.637 373.375C233.237 373.608 232.795 373.808 232.312 373.975C231.845 374.142 231.245 374.333 230.512 374.55C229.362 374.917 228.678 375.142 228.462 375.225C227.378 375.608 226.545 376.242 225.962 377.125C225.378 377.992 225.07 379.217 225.037 380.8C225.403 379.933 225.978 379.217 226.762 378.65C227.562 378.067 228.537 377.775 229.687 377.775C231.22 377.775 232.47 378.292 233.437 379.325C234.42 380.358 234.912 381.892 234.912 383.925C234.912 385.058 234.678 386.1 234.212 387.05C233.762 388 233.095 388.758 232.212 389.325C231.328 389.892 230.287 390.175 229.087 390.175ZM229.087 388.5C230.387 388.5 231.337 388.042 231.937 387.125C232.537 386.192 232.837 385.133 232.837 383.95C232.837 382.55 232.528 381.458 231.912 380.675C231.295 379.875 230.428 379.475 229.312 379.475C228.445 379.475 227.712 379.7 227.112 380.15C226.528 380.583 226.095 381.15 225.812 381.85C225.528 382.533 225.387 383.242 225.387 383.975C225.387 385.242 225.678 386.317 226.262 387.2C226.845 388.067 227.787 388.5 229.087 388.5ZM247.345 387.175C247.528 387.175 247.687 387.25 247.82 387.4C247.953 387.55 248.02 387.742 248.02 387.975C248.02 388.392 247.728 388.775 247.145 389.125C246.545 389.475 245.912 389.742 245.245 389.925C244.578 390.092 243.928 390.175 243.295 390.175C241.412 390.175 239.92 389.617 238.82 388.5C237.737 387.383 237.195 385.842 237.195 383.875C237.195 382.625 237.437 381.525 237.92 380.575C238.403 379.608 239.078 378.858 239.945 378.325C240.828 377.792 241.828 377.525 242.945 377.525C244.528 377.525 245.787 378.042 246.72 379.075C247.653 380.108 248.12 381.508 248.12 383.275C248.12 383.608 248.053 383.85 247.92 384C247.787 384.15 247.57 384.225 247.27 384.225H239.22C239.37 387.092 240.728 388.525 243.295 388.525C243.945 388.525 244.503 388.442 244.97 388.275C245.437 388.092 245.937 387.85 246.47 387.55C246.903 387.3 247.195 387.175 247.345 387.175ZM242.97 379.1C241.903 379.1 241.045 379.433 240.395 380.1C239.762 380.767 239.387 381.708 239.27 382.925H246.345C246.312 381.692 246.003 380.75 245.42 380.1C244.837 379.433 244.02 379.1 242.97 379.1ZM250.429 393.3C250.145 393.3 249.912 393.208 249.729 393.025C249.562 392.858 249.479 392.625 249.479 392.325V389.45C249.479 389.133 249.562 388.883 249.729 388.7C249.895 388.5 250.112 388.4 250.379 388.4H250.829C251.429 387.533 251.854 386.5 252.104 385.3C252.354 384.1 252.479 382.533 252.479 380.6V378.875C252.479 378.558 252.57 378.308 252.754 378.125C252.937 377.925 253.187 377.825 253.504 377.825H259.779C260.095 377.825 260.345 377.917 260.529 378.1C260.729 378.283 260.829 378.533 260.829 378.85V388.4H261.679C261.995 388.4 262.245 388.492 262.429 388.675C262.629 388.858 262.729 389.108 262.729 389.425V392.325C262.729 392.625 262.645 392.858 262.479 393.025C262.312 393.208 262.079 393.3 261.779 393.3C261.495 393.3 261.262 393.208 261.079 393.025C260.912 392.858 260.829 392.625 260.829 392.325V390H251.379V392.325C251.379 392.625 251.287 392.858 251.104 393.025C250.937 393.208 250.712 393.3 250.429 393.3ZM258.829 379.425H254.304V380.6C254.304 384.267 253.77 386.867 252.704 388.4H258.829V379.425ZM269.972 390.175C268.822 390.175 267.805 389.917 266.922 389.4C266.055 388.883 265.38 388.15 264.897 387.2C264.43 386.233 264.197 385.117 264.197 383.85C264.197 382.583 264.43 381.475 264.897 380.525C265.38 379.558 266.055 378.817 266.922 378.3C267.805 377.783 268.822 377.525 269.972 377.525C271.122 377.525 272.139 377.783 273.022 378.3C273.905 378.817 274.58 379.558 275.047 380.525C275.53 381.475 275.772 382.583 275.772 383.85C275.772 385.117 275.53 386.233 275.047 387.2C274.58 388.15 273.905 388.883 273.022 389.4C272.139 389.917 271.122 390.175 269.972 390.175ZM269.972 388.5C271.172 388.5 272.089 388.108 272.722 387.325C273.372 386.525 273.697 385.367 273.697 383.85C273.697 382.367 273.372 381.225 272.722 380.425C272.072 379.608 271.155 379.2 269.972 379.2C268.789 379.2 267.872 379.608 267.222 380.425C266.572 381.225 266.247 382.367 266.247 383.85C266.247 385.35 266.564 386.5 267.197 387.3C267.847 388.1 268.772 388.5 269.972 388.5ZM286.689 390.125C286.372 390.125 286.122 390.042 285.939 389.875C285.756 389.692 285.664 389.45 285.664 389.15V385.2C285.264 385.4 284.781 385.575 284.214 385.725C283.664 385.858 283.089 385.925 282.489 385.925C281.089 385.925 279.997 385.6 279.214 384.95C278.431 384.3 278.039 383.267 278.039 381.85V378.575C278.039 378.275 278.131 378.033 278.314 377.85C278.497 377.667 278.747 377.575 279.064 377.575C279.364 377.575 279.606 377.667 279.789 377.85C279.972 378.033 280.064 378.275 280.064 378.575V381.625C280.064 382.575 280.297 383.258 280.764 383.675C281.247 384.092 281.931 384.3 282.814 384.3C283.947 384.3 284.897 384.05 285.664 383.55V378.575C285.664 378.275 285.756 378.033 285.939 377.85C286.122 377.667 286.372 377.575 286.689 377.575C286.989 377.575 287.231 377.667 287.414 377.85C287.597 378.033 287.689 378.275 287.689 378.575V389.15C287.689 389.45 287.597 389.692 287.414 389.875C287.231 390.042 286.989 390.125 286.689 390.125ZM292.362 390.125C292.045 390.125 291.795 390.042 291.612 389.875C291.428 389.692 291.337 389.45 291.337 389.15V378.575C291.337 378.275 291.428 378.033 291.612 377.85C291.795 377.667 292.045 377.575 292.362 377.575C292.662 377.575 292.903 377.667 293.087 377.85C293.27 378.033 293.362 378.275 293.362 378.575V382.925H299.912V378.575C299.912 378.275 300.003 378.033 300.187 377.85C300.387 377.667 300.637 377.575 300.937 377.575C301.237 377.575 301.478 377.667 301.662 377.85C301.845 378.033 301.937 378.275 301.937 378.575L301.962 389.1C301.962 389.417 301.87 389.667 301.687 389.85C301.503 390.033 301.253 390.125 300.937 390.125C300.637 390.125 300.387 390.033 300.187 389.85C300.003 389.667 299.912 389.417 299.912 389.1V384.55H293.362V389.15C293.362 389.45 293.27 389.692 293.087 389.875C292.903 390.042 292.662 390.125 292.362 390.125ZM306.669 390C306.352 390 306.094 389.908 305.894 389.725C305.711 389.542 305.619 389.3 305.619 389V378.575C305.619 378.275 305.711 378.033 305.894 377.85C306.077 377.667 306.327 377.575 306.644 377.575C306.944 377.575 307.186 377.667 307.369 377.85C307.552 378.033 307.644 378.275 307.644 378.575V382.175H309.494C312.594 382.175 314.144 383.442 314.144 385.975C314.144 386.875 313.919 387.633 313.469 388.25C313.019 388.85 312.427 389.292 311.694 389.575C310.977 389.858 310.219 390 309.419 390H306.669ZM317.094 390.125C316.794 390.125 316.552 390.042 316.369 389.875C316.186 389.692 316.094 389.45 316.094 389.15V378.575C316.094 378.275 316.186 378.033 316.369 377.85C316.552 377.667 316.794 377.575 317.094 377.575C317.411 377.575 317.661 377.667 317.844 377.85C318.027 378.033 318.119 378.275 318.119 378.575V389.15C318.119 389.45 318.027 389.692 317.844 389.875C317.661 390.042 317.411 390.125 317.094 390.125ZM309.094 388.475C309.894 388.475 310.594 388.283 311.194 387.9C311.811 387.517 312.119 386.883 312.119 386C312.119 385.1 311.844 384.492 311.294 384.175C310.761 383.858 310.027 383.7 309.094 383.7H307.619V388.475H309.094ZM330.281 378.225C330.448 377.992 330.623 377.825 330.806 377.725C330.989 377.625 331.206 377.575 331.456 377.575C331.773 377.575 332.023 377.675 332.206 377.875C332.406 378.075 332.506 378.325 332.506 378.625V389.15C332.506 389.433 332.414 389.667 332.231 389.85C332.048 390.033 331.814 390.125 331.531 390.125C331.264 390.125 331.031 390.033 330.831 389.85C330.648 389.65 330.556 389.417 330.556 389.15V380.425L323.981 389.525C323.698 389.925 323.323 390.125 322.856 390.125C322.539 390.125 322.281 390.033 322.081 389.85C321.881 389.65 321.781 389.4 321.781 389.1V378.575C321.781 378.292 321.873 378.058 322.056 377.875C322.256 377.675 322.498 377.575 322.781 377.575C323.064 377.575 323.298 377.675 323.481 377.875C323.664 378.058 323.756 378.292 323.756 378.575V387.175L330.281 378.225ZM327.181 375.4C326.248 375.4 325.439 375.183 324.756 374.75C324.073 374.317 323.564 373.692 323.231 372.875C323.181 372.725 323.156 372.6 323.156 372.5C323.156 372.283 323.223 372.108 323.356 371.975C323.506 371.842 323.681 371.775 323.881 371.775C324.214 371.775 324.464 371.942 324.631 372.275C325.181 373.408 326.031 373.975 327.181 373.975C327.731 373.975 328.214 373.833 328.631 373.55C329.064 373.25 329.423 372.825 329.706 372.275C329.889 371.942 330.139 371.775 330.456 371.775C330.656 371.775 330.823 371.842 330.956 371.975C331.106 372.108 331.181 372.283 331.181 372.5C331.181 372.617 331.156 372.742 331.106 372.875C330.789 373.675 330.281 374.3 329.581 374.75C328.898 375.183 328.098 375.4 327.181 375.4Z" fill="#0098D0"/>
<path d="M439.175 391.125C438.875 391.125 438.633 391.033 438.45 390.85C438.267 390.65 438.175 390.392 438.175 390.075V374.275C438.175 373.958 438.267 373.708 438.45 373.525C438.633 373.342 438.875 373.25 439.175 373.25C439.492 373.25 439.742 373.342 439.925 373.525C440.108 373.708 440.2 373.958 440.2 374.275V381.175H443.075L449.125 373.65C449.325 373.383 449.583 373.25 449.9 373.25C450.15 373.25 450.367 373.342 450.55 373.525C450.733 373.692 450.825 373.9 450.825 374.15C450.825 374.367 450.733 374.592 450.55 374.825L445.15 381.525C446.017 381.758 446.7 382.142 447.2 382.675C447.717 383.192 448.308 384.05 448.975 385.25L451.425 389.6C451.525 389.8 451.575 389.983 451.575 390.15C451.575 390.433 451.475 390.667 451.275 390.85C451.092 391.033 450.867 391.125 450.6 391.125C450.233 391.125 449.942 390.933 449.725 390.55L446.975 385.675C446.408 384.658 445.842 383.95 445.275 383.55C444.708 383.133 443.942 382.925 442.975 382.925H440.2V390.075C440.2 390.392 440.108 390.65 439.925 390.85C439.742 391.033 439.492 391.125 439.175 391.125ZM460.309 378.525C461.375 378.525 462.317 378.792 463.134 379.325C463.95 379.858 464.584 380.608 465.034 381.575C465.484 382.525 465.709 383.633 465.709 384.9C465.709 386.167 465.484 387.275 465.034 388.225C464.584 389.158 463.95 389.883 463.134 390.4C462.334 390.917 461.392 391.175 460.309 391.175C459.359 391.175 458.525 390.967 457.809 390.55C457.109 390.133 456.575 389.542 456.209 388.775V394.65C456.209 394.95 456.117 395.183 455.934 395.35C455.767 395.533 455.525 395.625 455.209 395.625C454.892 395.625 454.642 395.533 454.459 395.35C454.275 395.167 454.184 394.933 454.184 394.65V379.575C454.184 379.275 454.275 379.033 454.459 378.85C454.642 378.667 454.892 378.575 455.209 378.575C455.525 378.575 455.767 378.667 455.934 378.85C456.117 379.033 456.209 379.275 456.209 379.575V380.925C456.575 380.158 457.109 379.567 457.809 379.15C458.525 378.733 459.359 378.525 460.309 378.525ZM459.909 389.5C461.092 389.5 462.009 389.1 462.659 388.3C463.309 387.5 463.634 386.367 463.634 384.9C463.634 383.433 463.309 382.292 462.659 381.475C462.009 380.642 461.092 380.225 459.909 380.225C458.725 380.225 457.809 380.625 457.159 381.425C456.525 382.225 456.209 383.367 456.209 384.85C456.209 386.333 456.525 387.483 457.159 388.3C457.809 389.1 458.725 389.5 459.909 389.5ZM473.709 378.525C476.759 378.525 478.284 380.125 478.284 383.325V390.125C478.284 390.425 478.193 390.667 478.009 390.85C477.843 391.033 477.609 391.125 477.309 391.125C477.009 391.125 476.768 391.033 476.584 390.85C476.401 390.667 476.309 390.425 476.309 390.125V388.925C475.993 389.642 475.509 390.2 474.859 390.6C474.209 390.983 473.459 391.175 472.609 391.175C471.826 391.175 471.101 391.017 470.434 390.7C469.784 390.383 469.268 389.942 468.884 389.375C468.501 388.808 468.309 388.183 468.309 387.5C468.309 386.583 468.543 385.875 469.009 385.375C469.476 384.858 470.243 384.492 471.309 384.275C472.376 384.042 473.859 383.925 475.759 383.925H476.309V383.1C476.309 382.1 476.101 381.367 475.684 380.9C475.284 380.433 474.626 380.2 473.709 380.2C472.576 380.2 471.426 380.508 470.259 381.125C469.809 381.408 469.493 381.55 469.309 381.55C469.109 381.55 468.943 381.475 468.809 381.325C468.676 381.175 468.609 380.983 468.609 380.75C468.609 380.517 468.676 380.317 468.809 380.15C468.959 379.967 469.193 379.783 469.509 379.6C470.093 379.267 470.751 379.008 471.484 378.825C472.234 378.625 472.976 378.525 473.709 378.525ZM472.884 389.575C473.884 389.575 474.701 389.242 475.334 388.575C475.984 387.892 476.309 387.017 476.309 385.95V385.225H475.859C474.393 385.225 473.276 385.292 472.509 385.425C471.743 385.542 471.193 385.75 470.859 386.05C470.543 386.333 470.384 386.758 470.384 387.325C470.384 387.975 470.618 388.517 471.084 388.95C471.568 389.367 472.168 389.575 472.884 389.575ZM482.966 391.125C482.65 391.125 482.4 391.042 482.216 390.875C482.033 390.692 481.941 390.45 481.941 390.15V379.575C481.941 379.275 482.033 379.033 482.216 378.85C482.4 378.667 482.65 378.575 482.966 378.575C483.266 378.575 483.508 378.667 483.691 378.85C483.875 379.033 483.966 379.275 483.966 379.575V383.925H490.516V379.575C490.516 379.275 490.608 379.033 490.791 378.85C490.991 378.667 491.241 378.575 491.541 378.575C491.841 378.575 492.083 378.667 492.266 378.85C492.45 379.033 492.541 379.275 492.541 379.575L492.566 390.1C492.566 390.417 492.475 390.667 492.291 390.85C492.108 391.033 491.858 391.125 491.541 391.125C491.241 391.125 490.991 391.033 490.791 390.85C490.608 390.667 490.516 390.417 490.516 390.1V385.55H483.966V390.15C483.966 390.45 483.875 390.692 483.691 390.875C483.508 391.042 483.266 391.125 482.966 391.125ZM496.948 385.175C496.648 385.175 496.415 385.1 496.248 384.95C496.098 384.8 496.023 384.6 496.023 384.35C496.023 384.1 496.098 383.9 496.248 383.75C496.415 383.583 496.648 383.5 496.948 383.5H502.448C502.765 383.5 502.998 383.583 503.148 383.75C503.315 383.9 503.398 384.1 503.398 384.35C503.398 384.6 503.315 384.8 503.148 384.95C502.998 385.1 502.765 385.175 502.448 385.175H496.948ZM518.269 378.575C518.585 378.575 518.835 378.667 519.019 378.85C519.219 379.033 519.319 379.283 519.319 379.6V390.175C519.319 390.458 519.227 390.692 519.044 390.875C518.877 391.042 518.652 391.125 518.369 391.125C518.085 391.125 517.852 391.042 517.669 390.875C517.502 390.692 517.419 390.458 517.419 390.175L517.444 382.05L513.994 388.5C513.91 388.667 513.785 388.8 513.619 388.9C513.469 389 513.294 389.05 513.094 389.05C512.894 389.05 512.71 389 512.544 388.9C512.394 388.8 512.277 388.667 512.194 388.5L508.719 382.05L508.744 390.175C508.744 390.458 508.652 390.692 508.469 390.875C508.302 391.042 508.077 391.125 507.794 391.125C507.51 391.125 507.277 391.042 507.094 390.875C506.927 390.692 506.844 390.458 506.844 390.175V379.625C506.844 379.308 506.935 379.058 507.119 378.875C507.302 378.675 507.552 378.575 507.869 378.575C508.369 378.575 508.735 378.8 508.969 379.25L513.094 387L517.169 379.3C517.419 378.817 517.785 378.575 518.269 378.575ZM527.982 378.525C531.032 378.525 532.557 380.125 532.557 383.325V390.125C532.557 390.425 532.465 390.667 532.282 390.85C532.115 391.033 531.882 391.125 531.582 391.125C531.282 391.125 531.04 391.033 530.857 390.85C530.674 390.667 530.582 390.425 530.582 390.125V388.925C530.265 389.642 529.782 390.2 529.132 390.6C528.482 390.983 527.732 391.175 526.882 391.175C526.099 391.175 525.374 391.017 524.707 390.7C524.057 390.383 523.54 389.942 523.157 389.375C522.774 388.808 522.582 388.183 522.582 387.5C522.582 386.583 522.815 385.875 523.282 385.375C523.749 384.858 524.515 384.492 525.582 384.275C526.649 384.042 528.132 383.925 530.032 383.925H530.582V383.1C530.582 382.1 530.374 381.367 529.957 380.9C529.557 380.433 528.899 380.2 527.982 380.2C526.849 380.2 525.699 380.508 524.532 381.125C524.082 381.408 523.765 381.55 523.582 381.55C523.382 381.55 523.215 381.475 523.082 381.325C522.949 381.175 522.882 380.983 522.882 380.75C522.882 380.517 522.949 380.317 523.082 380.15C523.232 379.967 523.465 379.783 523.782 379.6C524.365 379.267 525.024 379.008 525.757 378.825C526.507 378.625 527.249 378.525 527.982 378.525ZM527.157 389.575C528.157 389.575 528.974 389.242 529.607 388.575C530.257 387.892 530.582 387.017 530.582 385.95V385.225H530.132C528.665 385.225 527.549 385.292 526.782 385.425C526.015 385.542 525.465 385.75 525.132 386.05C524.815 386.333 524.657 386.758 524.657 387.325C524.657 387.975 524.89 388.517 525.357 388.95C525.84 389.367 526.44 389.575 527.157 389.575ZM537.239 391.125C536.922 391.125 536.672 391.042 536.489 390.875C536.305 390.692 536.214 390.45 536.214 390.15V379.575C536.214 379.275 536.305 379.033 536.489 378.85C536.672 378.667 536.922 378.575 537.239 378.575C537.539 378.575 537.78 378.667 537.964 378.85C538.147 379.033 538.239 379.275 538.239 379.575V383.925H544.789V379.575C544.789 379.275 544.88 379.033 545.064 378.85C545.264 378.667 545.514 378.575 545.814 378.575C546.114 378.575 546.355 378.667 546.539 378.85C546.722 379.033 546.814 379.275 546.814 379.575L546.839 390.1C546.839 390.417 546.747 390.667 546.564 390.85C546.38 391.033 546.13 391.125 545.814 391.125C545.514 391.125 545.264 391.033 545.064 390.85C544.88 390.667 544.789 390.417 544.789 390.1V385.55H538.239V390.15C538.239 390.45 538.147 390.692 537.964 390.875C537.78 391.042 537.539 391.125 537.239 391.125ZM558.996 379.225C559.163 378.992 559.338 378.825 559.521 378.725C559.704 378.625 559.921 378.575 560.171 378.575C560.488 378.575 560.738 378.675 560.921 378.875C561.121 379.075 561.221 379.325 561.221 379.625V390.15C561.221 390.433 561.129 390.667 560.946 390.85C560.763 391.033 560.529 391.125 560.246 391.125C559.979 391.125 559.746 391.033 559.546 390.85C559.363 390.65 559.271 390.417 559.271 390.15V381.425L552.696 390.525C552.413 390.925 552.038 391.125 551.571 391.125C551.254 391.125 550.996 391.033 550.796 390.85C550.596 390.65 550.496 390.4 550.496 390.1V379.575C550.496 379.292 550.588 379.058 550.771 378.875C550.971 378.675 551.213 378.575 551.496 378.575C551.779 378.575 552.013 378.675 552.196 378.875C552.379 379.058 552.471 379.292 552.471 379.575V388.175L558.996 379.225ZM565.925 391.125C565.609 391.125 565.359 391.042 565.175 390.875C564.992 390.692 564.9 390.45 564.9 390.15V379.875C564.9 379.542 564.992 379.283 565.175 379.1C565.359 378.917 565.609 378.825 565.925 378.825H574.3C574.617 378.825 574.867 378.917 575.05 379.1C575.25 379.283 575.35 379.533 575.35 379.85V390.15C575.35 390.45 575.259 390.692 575.075 390.875C574.892 391.042 574.65 391.125 574.35 391.125C574.034 391.125 573.784 391.042 573.6 390.875C573.417 390.692 573.325 390.45 573.325 390.15V380.425H566.925V390.15C566.925 390.45 566.834 390.692 566.65 390.875C566.467 391.042 566.225 391.125 565.925 391.125ZM587.837 379.2C588.02 378.8 588.312 378.6 588.712 378.6C588.962 378.6 589.187 378.683 589.387 378.85C589.587 379.017 589.687 379.225 589.687 379.475C589.687 379.625 589.653 379.758 589.587 379.875L582.562 395.025C582.478 395.208 582.353 395.35 582.187 395.45C582.037 395.55 581.878 395.6 581.712 395.6C581.462 395.6 581.237 395.517 581.037 395.35C580.853 395.2 580.762 395 580.762 394.75C580.762 394.617 580.795 394.483 580.862 394.35L582.612 390.575L577.662 379.875C577.595 379.758 577.562 379.633 577.562 379.5C577.562 379.25 577.67 379.033 577.887 378.85C578.12 378.667 578.37 378.575 578.637 378.575C578.803 378.575 578.962 378.625 579.112 378.725C579.278 378.825 579.403 378.967 579.487 379.15L583.662 388.525L587.837 379.2ZM594.496 381.875C594.496 384.492 594.221 386.508 593.671 387.925C593.138 389.342 592.255 390.392 591.021 391.075C590.905 391.125 590.763 391.15 590.596 391.15C590.346 391.15 590.138 391.075 589.971 390.925C589.821 390.775 589.746 390.583 589.746 390.35C589.746 390.183 589.788 390.025 589.871 389.875C589.955 389.725 590.08 389.608 590.246 389.525C590.846 389.175 591.313 388.708 591.646 388.125C591.996 387.542 592.238 386.767 592.371 385.8C592.521 384.817 592.596 383.517 592.596 381.9V379.875C592.596 379.542 592.688 379.283 592.871 379.1C593.055 378.917 593.305 378.825 593.621 378.825H600.246C600.563 378.825 600.813 378.917 600.996 379.1C601.196 379.283 601.296 379.533 601.296 379.85V390.15C601.296 390.433 601.196 390.667 600.996 390.85C600.813 391.033 600.571 391.125 600.271 391.125C599.971 391.125 599.73 391.033 599.546 390.85C599.363 390.667 599.271 390.433 599.271 390.15V380.425H594.496V381.875ZM613.339 391.125C613.023 391.125 612.773 391.042 612.589 390.875C612.406 390.692 612.314 390.442 612.314 390.125V386.425H610.764C610.098 386.425 609.523 386.575 609.039 386.875C608.573 387.175 608.148 387.617 607.764 388.2L606.139 390.7C605.906 391.033 605.614 391.2 605.264 391.2C605.014 391.2 604.789 391.108 604.589 390.925C604.389 390.742 604.289 390.525 604.289 390.275C604.289 390.108 604.356 389.917 604.489 389.7L605.539 388.025C605.889 387.475 606.273 387.017 606.689 386.65C607.123 386.283 607.564 386.042 608.014 385.925C606.881 385.758 606.064 385.367 605.564 384.75C605.064 384.133 604.814 383.408 604.814 382.575C604.814 381.375 605.189 380.45 605.939 379.8C606.706 379.15 607.723 378.825 608.989 378.825H613.289C613.606 378.825 613.856 378.917 614.039 379.1C614.223 379.283 614.314 379.525 614.314 379.825V390.125C614.314 390.442 614.223 390.692 614.039 390.875C613.873 391.042 613.639 391.125 613.339 391.125ZM612.314 380.35H609.539C608.656 380.35 607.973 380.542 607.489 380.925C607.006 381.308 606.764 381.883 606.764 382.65C606.764 383.467 607.023 384.05 607.539 384.4C608.073 384.733 608.756 384.9 609.589 384.9H612.314V380.35ZM621.776 391.125C621.476 391.125 621.234 391.042 621.051 390.875C620.867 390.692 620.776 390.45 620.776 390.15V380.425H617.201C616.951 380.425 616.751 380.35 616.601 380.2C616.451 380.05 616.376 379.858 616.376 379.625C616.376 379.392 616.451 379.2 616.601 379.05C616.751 378.9 616.951 378.825 617.201 378.825H626.351C626.601 378.825 626.801 378.9 626.951 379.05C627.101 379.2 627.176 379.392 627.176 379.625C627.176 379.858 627.101 380.05 626.951 380.2C626.801 380.35 626.601 380.425 626.351 380.425H622.801V390.15C622.801 390.45 622.701 390.692 622.501 390.875C622.317 391.042 622.076 391.125 621.776 391.125ZM634.234 391.175C633.084 391.175 632.067 390.917 631.184 390.4C630.317 389.883 629.642 389.15 629.159 388.2C628.692 387.233 628.459 386.117 628.459 384.85C628.459 383.583 628.692 382.475 629.159 381.525C629.642 380.558 630.317 379.817 631.184 379.3C632.067 378.783 633.084 378.525 634.234 378.525C635.384 378.525 636.4 378.783 637.284 379.3C638.167 379.817 638.842 380.558 639.309 381.525C639.792 382.475 640.034 383.583 640.034 384.85C640.034 386.117 639.792 387.233 639.309 388.2C638.842 389.15 638.167 389.883 637.284 390.4C636.4 390.917 635.384 391.175 634.234 391.175ZM634.234 389.5C635.434 389.5 636.35 389.108 636.984 388.325C637.634 387.525 637.959 386.367 637.959 384.85C637.959 383.367 637.634 382.225 636.984 381.425C636.334 380.608 635.417 380.2 634.234 380.2C633.05 380.2 632.134 380.608 631.484 381.425C630.834 382.225 630.509 383.367 630.509 384.85C630.509 386.35 630.825 387.5 631.459 388.3C632.109 389.1 633.034 389.5 634.234 389.5ZM649.176 378.525C650.242 378.525 651.184 378.792 652.001 379.325C652.817 379.858 653.451 380.608 653.901 381.575C654.351 382.525 654.576 383.633 654.576 384.9C654.576 386.167 654.351 387.275 653.901 388.225C653.451 389.158 652.817 389.883 652.001 390.4C651.201 390.917 650.259 391.175 649.176 391.175C648.226 391.175 647.392 390.967 646.676 390.55C645.976 390.133 645.442 389.542 645.076 388.775V394.65C645.076 394.95 644.984 395.183 644.801 395.35C644.634 395.533 644.392 395.625 644.076 395.625C643.759 395.625 643.509 395.533 643.326 395.35C643.142 395.167 643.051 394.933 643.051 394.65V379.575C643.051 379.275 643.142 379.033 643.326 378.85C643.509 378.667 643.759 378.575 644.076 378.575C644.392 378.575 644.634 378.667 644.801 378.85C644.984 379.033 645.076 379.275 645.076 379.575V380.925C645.442 380.158 645.976 379.567 646.676 379.15C647.392 378.733 648.226 378.525 649.176 378.525ZM648.776 389.5C649.959 389.5 650.876 389.1 651.526 388.3C652.176 387.5 652.501 386.367 652.501 384.9C652.501 383.433 652.176 382.292 651.526 381.475C650.876 380.642 649.959 380.225 648.776 380.225C647.592 380.225 646.676 380.625 646.026 381.425C645.392 382.225 645.076 383.367 645.076 384.85C645.076 386.333 645.392 387.483 646.026 388.3C646.676 389.1 647.592 389.5 648.776 389.5Z" fill="#0098D0"/>
<path d="M756.175 391.125C755.875 391.125 755.633 391.033 755.45 390.85C755.267 390.667 755.175 390.417 755.175 390.1V374.375C755.175 374.075 755.267 373.833 755.45 373.65C755.633 373.467 755.875 373.375 756.175 373.375H765.35C765.617 373.375 765.825 373.458 765.975 373.625C766.142 373.775 766.225 373.975 766.225 374.225C766.225 374.492 766.142 374.708 765.975 374.875C765.825 375.025 765.617 375.1 765.35 375.1H757.2V390.1C757.2 390.417 757.108 390.667 756.925 390.85C756.742 391.033 756.492 391.125 756.175 391.125ZM772.694 378.525C773.761 378.525 774.703 378.792 775.519 379.325C776.336 379.858 776.969 380.608 777.419 381.575C777.869 382.525 778.094 383.633 778.094 384.9C778.094 386.167 777.869 387.275 777.419 388.225C776.969 389.158 776.336 389.883 775.519 390.4C774.719 390.917 773.778 391.175 772.694 391.175C771.744 391.175 770.911 390.967 770.194 390.55C769.494 390.133 768.961 389.542 768.594 388.775V394.65C768.594 394.95 768.503 395.183 768.319 395.35C768.153 395.533 767.911 395.625 767.594 395.625C767.278 395.625 767.028 395.533 766.844 395.35C766.661 395.167 766.569 394.933 766.569 394.65V379.575C766.569 379.275 766.661 379.033 766.844 378.85C767.028 378.667 767.278 378.575 767.594 378.575C767.911 378.575 768.153 378.667 768.319 378.85C768.503 379.033 768.594 379.275 768.594 379.575V380.925C768.961 380.158 769.494 379.567 770.194 379.15C770.911 378.733 771.744 378.525 772.694 378.525ZM772.294 389.5C773.478 389.5 774.394 389.1 775.044 388.3C775.694 387.5 776.019 386.367 776.019 384.9C776.019 383.433 775.694 382.292 775.044 381.475C774.394 380.642 773.478 380.225 772.294 380.225C771.111 380.225 770.194 380.625 769.544 381.425C768.911 382.225 768.594 383.367 768.594 384.85C768.594 386.333 768.911 387.483 769.544 388.3C770.194 389.1 771.111 389.5 772.294 389.5ZM789.749 379.2C789.932 378.8 790.224 378.6 790.624 378.6C790.874 378.6 791.099 378.683 791.299 378.85C791.499 379.017 791.599 379.225 791.599 379.475C791.599 379.625 791.565 379.758 791.499 379.875L784.474 395.025C784.39 395.208 784.265 395.35 784.099 395.45C783.949 395.55 783.79 395.6 783.624 395.6C783.374 395.6 783.149 395.517 782.949 395.35C782.765 395.2 782.674 395 782.674 394.75C782.674 394.617 782.707 394.483 782.774 394.35L784.524 390.575L779.574 379.875C779.507 379.758 779.474 379.633 779.474 379.5C779.474 379.25 779.582 379.033 779.799 378.85C780.032 378.667 780.282 378.575 780.549 378.575C780.715 378.575 780.874 378.625 781.024 378.725C781.19 378.825 781.315 378.967 781.399 379.15L785.574 388.525L789.749 379.2ZM797.417 391.175C795.667 391.175 794.209 390.783 793.042 390C792.726 389.8 792.567 389.542 792.567 389.225C792.567 389.025 792.642 388.85 792.792 388.7C792.959 388.533 793.151 388.45 793.367 388.45C793.551 388.45 793.717 388.5 793.867 388.6C794.401 388.917 794.926 389.15 795.442 389.3C795.976 389.45 796.592 389.525 797.292 389.525C798.142 389.525 798.892 389.342 799.542 388.975C800.209 388.608 800.542 388.067 800.542 387.35C800.542 386.133 799.709 385.525 798.042 385.525H796.142C795.909 385.525 795.717 385.45 795.567 385.3C795.417 385.15 795.342 384.958 795.342 384.725C795.342 384.508 795.417 384.333 795.567 384.2C795.717 384.05 795.909 383.975 796.142 383.975H797.867C798.601 383.975 799.192 383.792 799.642 383.425C800.092 383.058 800.317 382.583 800.317 382C800.317 381.433 800.092 380.992 799.642 380.675C799.192 380.358 798.526 380.2 797.642 380.2C796.909 380.2 796.267 380.283 795.717 380.45C795.184 380.617 794.676 380.85 794.192 381.15C794.026 381.233 793.876 381.275 793.742 381.275C793.509 381.275 793.309 381.2 793.142 381.05C792.992 380.883 792.917 380.692 792.917 380.475C792.917 380.158 793.084 379.917 793.417 379.75C794.734 378.933 796.234 378.525 797.917 378.525C799.451 378.525 800.584 378.825 801.317 379.425C802.051 380.008 802.417 380.8 802.417 381.8C802.417 382.4 802.226 382.967 801.842 383.5C801.459 384.017 800.926 384.392 800.242 384.625C801.076 384.775 801.684 385.1 802.067 385.6C802.451 386.1 802.642 386.717 802.642 387.45C802.642 388.6 802.142 389.508 801.142 390.175C800.142 390.842 798.901 391.175 797.417 391.175ZM810.657 391.175C809.507 391.175 808.491 390.917 807.607 390.4C806.741 389.883 806.066 389.15 805.582 388.2C805.116 387.233 804.882 386.117 804.882 384.85C804.882 383.583 805.116 382.475 805.582 381.525C806.066 380.558 806.741 379.817 807.607 379.3C808.491 378.783 809.507 378.525 810.657 378.525C811.807 378.525 812.824 378.783 813.707 379.3C814.591 379.817 815.266 380.558 815.732 381.525C816.216 382.475 816.457 383.583 816.457 384.85C816.457 386.117 816.216 387.233 815.732 388.2C815.266 389.15 814.591 389.883 813.707 390.4C812.824 390.917 811.807 391.175 810.657 391.175ZM810.657 389.5C811.857 389.5 812.774 389.108 813.407 388.325C814.057 387.525 814.382 386.367 814.382 384.85C814.382 383.367 814.057 382.225 813.407 381.425C812.757 380.608 811.841 380.2 810.657 380.2C809.474 380.2 808.557 380.608 807.907 381.425C807.257 382.225 806.932 383.367 806.932 384.85C806.932 386.35 807.249 387.5 807.882 388.3C808.532 389.1 809.457 389.5 810.657 389.5ZM820.475 391C820.158 391 819.9 390.908 819.7 390.725C819.516 390.542 819.425 390.3 819.425 390V379.875C819.425 379.558 819.516 379.308 819.7 379.125C819.883 378.925 820.133 378.825 820.45 378.825H824.775C826.108 378.825 827.141 379.083 827.875 379.6C828.608 380.117 828.975 380.892 828.975 381.925C828.975 382.525 828.8 383.083 828.45 383.6C828.1 384.117 827.566 384.5 826.85 384.75C827.6 384.883 828.191 385.2 828.625 385.7C829.075 386.2 829.3 386.833 829.3 387.6C829.3 388.167 829.141 388.708 828.825 389.225C828.525 389.742 828.041 390.167 827.375 390.5C826.708 390.833 825.875 391 824.875 391H820.475ZM824.625 384.075C825.325 384.075 825.891 383.9 826.325 383.55C826.758 383.183 826.975 382.692 826.975 382.075C826.975 380.908 826.166 380.325 824.55 380.325H821.45V384.075H824.625ZM824.675 389.5C826.391 389.5 827.25 388.842 827.25 387.525C827.25 386.858 827 386.358 826.5 386.025C826 385.692 825.316 385.525 824.45 385.525H821.45V389.5H824.675ZM837.318 391.175C836.168 391.175 835.151 390.917 834.268 390.4C833.401 389.883 832.726 389.15 832.243 388.2C831.776 387.233 831.543 386.117 831.543 384.85C831.543 383.583 831.776 382.475 832.243 381.525C832.726 380.558 833.401 379.817 834.268 379.3C835.151 378.783 836.168 378.525 837.318 378.525C838.468 378.525 839.484 378.783 840.368 379.3C841.251 379.817 841.926 380.558 842.393 381.525C842.876 382.475 843.118 383.583 843.118 384.85C843.118 386.117 842.876 387.233 842.393 388.2C841.926 389.15 841.251 389.883 840.368 390.4C839.484 390.917 838.468 391.175 837.318 391.175ZM837.318 389.5C838.518 389.5 839.434 389.108 840.068 388.325C840.718 387.525 841.043 386.367 841.043 384.85C841.043 383.367 840.718 382.225 840.068 381.425C839.418 380.608 838.501 380.2 837.318 380.2C836.134 380.2 835.218 380.608 834.568 381.425C833.918 382.225 833.593 383.367 833.593 384.85C833.593 386.35 833.909 387.5 834.543 388.3C835.193 389.1 836.118 389.5 837.318 389.5ZM854.585 379.225C854.751 378.992 854.926 378.825 855.11 378.725C855.293 378.625 855.51 378.575 855.76 378.575C856.076 378.575 856.326 378.675 856.51 378.875C856.71 379.075 856.81 379.325 856.81 379.625V390.15C856.81 390.433 856.718 390.667 856.535 390.85C856.351 391.033 856.118 391.125 855.835 391.125C855.568 391.125 855.335 391.033 855.135 390.85C854.951 390.65 854.86 390.417 854.86 390.15V381.425L848.285 390.525C848.001 390.925 847.626 391.125 847.16 391.125C846.843 391.125 846.585 391.033 846.385 390.85C846.185 390.65 846.085 390.4 846.085 390.1V379.575C846.085 379.292 846.176 379.058 846.36 378.875C846.56 378.675 846.801 378.575 847.085 378.575C847.368 378.575 847.601 378.675 847.785 378.875C847.968 379.058 848.06 379.292 848.06 379.575V388.175L854.585 379.225ZM851.485 376.4C850.551 376.4 849.743 376.183 849.06 375.75C848.376 375.317 847.868 374.692 847.535 373.875C847.485 373.725 847.46 373.6 847.46 373.5C847.46 373.283 847.526 373.108 847.66 372.975C847.81 372.842 847.985 372.775 848.185 372.775C848.518 372.775 848.768 372.942 848.935 373.275C849.485 374.408 850.335 374.975 851.485 374.975C852.035 374.975 852.518 374.833 852.935 374.55C853.368 374.25 853.726 373.825 854.01 373.275C854.193 372.942 854.443 372.775 854.76 372.775C854.96 372.775 855.126 372.842 855.26 372.975C855.41 373.108 855.485 373.283 855.485 373.5C855.485 373.617 855.46 373.742 855.41 373.875C855.093 374.675 854.585 375.3 853.885 375.75C853.201 376.183 852.401 376.4 851.485 376.4Z" fill="#0098D0"/>
<path d="M0 0H41.5L71 504H0V0Z" fill="#FF8300"/>
</svg>
